#!OML:ASF H:\Terrain\Walking\May29\JustinRory\Justin.ASF
:FULLY-SPECIFIED
:DEGREES
1033
root 9.35981 17.9082 9.05741 -177.471 -12.6269 -178.175 
lowerback 3.29509 2.51558 1.07228 
upperback 1.64478 3.33079 0.939458 
thorax -0.152703 1.64289 0.250791 
lowerneck -16.4304 -6.77195 -14.7384 
upperneck 25.8889 -7.35972 3.29656 
head 11.9495 -4.66919 2.46885 
rclavicle -8.99501e-15 7.15625e-15 
rhumerus 1.78875 3.36102 -80.4956 
rradius 40.1519 
rwrist -26.2435 
rhand -1.30756 26.8219 
rfingers 7.12502 
rthumb 24.3374 -1.65285 
lclavicle -8.99501e-15 7.15625e-15 
lhumerus -30.5622 2.5122 78.307 
lradius 48.8782 
lwrist -1.12842 
lhand -3.01711 37.866 
lfingers 7.12502 
lthumb 22.6975 66.5511 
rfemur -21.237 -0.416042 18.6728 
rtibia 19.1521 
rfoot -0.318882 -2.66948 
rtoes 6.82876 
lfemur -4.57895 -5.85285 -19.0412 
ltibia 27.8821 
lfoot -17.7102 -6.66236 
ltoes -6.29809 
1034
root 9.38299 17.9081 8.97335 -177.377 -13.0227 -177.933 
lowerback 3.33089 2.40245 1.19237 
upperback 1.56853 3.18416 1.16126 
thorax -0.257257 1.56779 0.411494 
lowerneck -16.4354 -6.95008 -14.8212 
upperneck 25.7326 -7.53648 3.16336 
head 11.9088 -4.76104 2.40199 
rclavicle -3.62782e-14 1.39149e-14 
rhumerus 0.959807 4.14829 -80.3231 
rradius 41.1477 
rwrist -26.8367 
rhand -0.230945 26.0136 
rfingers 7.12502 
rthumb 25.3691 -2.31877 
lclavicle -3.62782e-14 1.39149e-14 
lhumerus -31.0706 3.12366 78.2938 
lradius 48.4536 
lwrist -1.5492 
lhand -3.04871 37.9184 
lfingers 7.12502 
lthumb 22.6672 66.6073 
rfemur -21.3818 -0.503454 19.0637 
rtibia 19.5805 
rfoot -0.127295 -3.30614 
rtoes 8.25186 
lfemur -4.69721 -6.07672 -18.6001 
ltibia 28.2504 
lfoot -17.5692 -7.01457 
ltoes -4.20592 
1035
root 9.40688 17.917 8.88407 -177.39 -13.5323 -177.959 
lowerback 3.53574 2.29086 1.12192 
upperback 1.44613 3.04174 1.22744 
thorax -0.504595 1.49582 0.510973 
lowerneck -16.1522 -7.07589 -14.7984 
upperneck 25.5004 -7.76196 3.17069 
head 11.7849 -4.85154 2.37295 
rclavicle -1.71949e-14 -4.57205e-15 
rhumerus 0.00628397 5.00966 -80.2681 
rradius 41.9156 
rwrist -27.1819 
rhand 1.70643 25.0625 
rfingers 7.12502 
rthumb 27.2238 -2.99307 
lclavicle -1.71949e-14 -4.57205e-15 
lhumerus -31.6462 3.48933 78.221 
lradius 47.861 
lwrist -1.93256 
lhand -3.82592 36.8424 
lfingers 7.12502 
lthumb 21.9211 65.6205 
rfemur -21.2448 -0.597233 19.1454 
rtibia 20.1312 
rfoot -0.324501 -3.87721 
rtoes 10.6119 
lfemur -4.65099 -6.38902 -18.4688 
ltibia 28.6294 
lfoot -17.3606 -7.11896 
ltoes -4.9247 
1036
root 9.43242 17.9233 8.79937 -177.285 -13.8534 -178.051 
lowerback 3.49933 2.19226 1.0611 
upperback 1.46097 2.90797 1.20402 
thorax -0.470762 1.42932 0.527919 
lowerneck -15.9521 -7.18454 -14.7398 
upperneck 24.9484 -7.94331 3.32577 
head 11.5542 -4.87682 2.40303 
rclavicle -1.20762e-14 9.93923e-15 
rhumerus -0.585552 6.14513 -80.2524 
rradius 42.4137 
rwrist -28.0448 
rhand 1.01971 25.8517 
rfingers 7.12502 
rthumb 26.5667 -2.30501 
lclavicle -1.20762e-14 9.93923e-15 
lhumerus -32.0403 3.92235 78.013 
lradius 47.363 
lwrist -2.16465 
lhand -4.39053 35.8637 
lfingers 7.12502 
lthumb 21.3789 64.7042 
rfemur -21.2939 -0.676724 19.1974 
rtibia 20.7358 
rfoot -0.663474 -3.97554 
rtoes 12.9771 
lfemur -4.71426 -6.72204 -18.3822 
ltibia 28.9839 
lfoot -17.2216 -7.25568 
ltoes -3.90762 
1037
root 9.45692 17.9308 8.71706 -177.111 -14.1556 -178.106 
lowerback 3.31073 2.06769 0.996059 
upperback 1.56199 2.73295 1.2168 
thorax -0.265278 1.34149 0.593632 
lowerneck -15.9186 -7.332 -14.8733 
upperneck 24.4141 -8.13468 3.65092 
head 11.3844 -4.9003 2.51926 
rclavicle -3.86885e-14 7.35503e-15 
rhumerus -1.12251 8.06494 -80.0953 
rradius 43.107 
rwrist -29.2324 
rhand 0.815202 25.3464 
rfingers 7.12502 
rthumb 26.371 -2.83985 
lclavicle -3.86885e-14 7.35503e-15 
lhumerus -32.372 4.43552 77.8113 
lradius 47.0072 
lwrist -2.13143 
lhand -4.29452 36.4653 
lfingers 7.12502 
lthumb 21.4711 65.2954 
rfemur -21.4701 -0.684147 19.2883 
rtibia 21.3232 
rfoot -0.9443 -3.94733 
rtoes 13.9459 
lfemur -4.93781 -6.85535 -18.2392 
ltibia 29.3798 
lfoot -17.0255 -7.58835 
ltoes -1.94713 
1038
root 9.47534 17.943 8.62522 -177.075 -14.7336 -178.122 
lowerback 3.2639 1.8887 0.986019 
upperback 1.60445 2.49027 1.29802 
thorax -0.198809 1.21892 0.693234 
lowerneck -15.9247 -7.55595 -15.2824 
upperneck 24.208 -8.4262 4.08782 
head 11.3804 -5.00008 2.69797 
rclavicle -2.78795e-14 -2.5842e-15 
rhumerus -2.14401 10.795 -79.8159 
rradius 44.265 
rwrist -29.6023 
rhand -2.18641 24.7596 
rfingers 7.12502 
rthumb 23.4946 -3.82569 
lclavicle -2.78795e-14 -2.5842e-15 
lhumerus -32.8103 5.0535 77.7124 
lradius 46.5322 
lwrist -2.30689 
lhand -4.11596 37.1552 
lfingers 7.12502 
lthumb 21.6426 65.9656 
rfemur -21.3047 -0.676579 19.3477 
rtibia 21.7358 
rfoot -1.34149 -4.07764 
rtoes 14.4214 
lfemur -5.04432 -7.08929 -18.1152 
ltibia 29.8906 
lfoot -16.779 -7.59959 
ltoes -3.25516 
